<svg width="20" height="19" viewBox="0 0 20 19" fill="none" xmlns="http://www.w3.org/2000/svg">
<path d="M12.7051 9.52515C12.7051 10.1185 12.5291 10.6985 12.1995 11.1919C11.8698 11.6852 11.4013 12.0697 10.8531 12.2968C10.3049 12.5238 9.70175 12.5833 9.11981 12.4675C8.53786 12.3517 8.00332 12.066 7.58376 11.6465C7.1642 11.2269 6.87848 10.6924 6.76272 10.1104C6.64697 9.52847 6.70638 8.92527 6.93344 8.3771C7.1605 7.82892 7.54502 7.36038 8.03837 7.03074C8.53172 6.70109 9.11173 6.52515 9.70508 6.52515C10.5 6.52762 11.2616 6.84448 11.8237 7.40656C12.3857 7.96863 12.7026 8.73026 12.7051 9.52515ZM19.0801 5.40015V13.6501C19.0801 15.0425 18.527 16.3779 17.5424 17.3625C16.5578 18.347 15.2225 18.9001 13.8301 18.9001H5.58008C4.18769 18.9001 2.85233 18.347 1.86777 17.3625C0.883201 16.3779 0.330078 15.0425 0.330078 13.6501V5.40015C0.330078 4.00776 0.883201 2.6724 1.86777 1.68784C2.85233 0.70327 4.18769 0.150146 5.58008 0.150146H13.8301C15.2225 0.150146 16.5578 0.70327 17.5424 1.68784C18.527 2.6724 19.0801 4.00776 19.0801 5.40015ZM14.2051 9.52515C14.2051 8.63513 13.9412 7.7651 13.4467 7.02508C12.9522 6.28506 12.2494 5.70828 11.4272 5.36769C10.6049 5.02709 9.70009 4.93798 8.82717 5.11161C7.95426 5.28525 7.15243 5.71383 6.5231 6.34317C5.89376 6.9725 5.46518 7.77433 5.29154 8.64724C5.11791 9.52015 5.20703 10.425 5.54762 11.2472C5.88821 12.0695 6.46499 12.7723 7.20501 13.2668C7.94503 13.7612 8.81506 14.0251 9.70508 14.0251C10.8986 14.0251 12.0431 13.551 12.8871 12.7071C13.731 11.8632 14.2051 10.7186 14.2051 9.52515ZM15.7051 4.65015C15.7051 4.42764 15.6391 4.21014 15.5155 4.02513C15.3919 3.84012 15.2162 3.69593 15.0106 3.61078C14.805 3.52563 14.5788 3.50335 14.3606 3.54676C14.1424 3.59017 13.9419 3.69732 13.7846 3.85465C13.6272 4.01199 13.5201 4.21244 13.4767 4.43067C13.4333 4.6489 13.4556 4.8751 13.5407 5.08067C13.6259 5.28623 13.7701 5.46193 13.9551 5.58555C14.1401 5.70917 14.3576 5.77515 14.5801 5.77515C14.8784 5.77515 15.1646 5.65662 15.3756 5.44564C15.5866 5.23466 15.7051 4.94852 15.7051 4.65015Z" fill="black"/>
</svg>
