<svg width="20" height="20" viewBox="0 0 20 20" fill="none" xmlns="http://www.w3.org/2000/svg">
<path d="M12.7051 9.75195C12.7051 10.3453 12.5291 10.9253 12.1995 11.4187C11.8698 11.912 11.4013 12.2965 10.8531 12.5236C10.3049 12.7507 9.70175 12.8101 9.11981 12.6943C8.53786 12.5786 8.00332 12.2928 7.58376 11.8733C7.1642 11.4537 6.87848 10.9192 6.76272 10.3372C6.64697 9.75528 6.70638 9.15208 6.93344 8.6039C7.1605 8.05572 7.54502 7.58719 8.03837 7.25754C8.53172 6.9279 9.11173 6.75195 9.70508 6.75195C10.5 6.75443 11.2616 7.07129 11.8237 7.63336C12.3857 8.19544 12.7026 8.95706 12.7051 9.75195ZM19.0801 5.62695V13.877C19.0801 15.2693 18.527 16.6047 17.5424 17.5893C16.5578 18.5738 15.2225 19.127 13.8301 19.127H5.58008C4.18769 19.127 2.85233 18.5738 1.86777 17.5893C0.883201 16.6047 0.330078 15.2693 0.330078 13.877V5.62695C0.330078 4.23457 0.883201 2.89921 1.86777 1.91464C2.85233 0.930076 4.18769 0.376953 5.58008 0.376953H13.8301C15.2225 0.376953 16.5578 0.930076 17.5424 1.91464C18.527 2.89921 19.0801 4.23457 19.0801 5.62695ZM14.2051 9.75195C14.2051 8.86194 13.9412 7.99191 13.4467 7.25189C12.9522 6.51187 12.2494 5.93509 11.4272 5.5945C10.6049 5.2539 9.70009 5.16479 8.82717 5.33842C7.95426 5.51205 7.15243 5.94064 6.5231 6.56997C5.89376 7.19931 5.46518 8.00113 5.29154 8.87405C5.11791 9.74696 5.20703 10.6518 5.54762 11.474C5.88821 12.2963 6.46499 12.9991 7.20501 13.4936C7.94503 13.988 8.81506 14.252 9.70508 14.252C10.8986 14.252 12.0431 13.7778 12.8871 12.9339C13.731 12.09 14.2051 10.9454 14.2051 9.75195ZM15.7051 4.87695C15.7051 4.65445 15.6391 4.43694 15.5155 4.25194C15.3919 4.06693 15.2162 3.92274 15.0106 3.83759C14.805 3.75244 14.5788 3.73016 14.3606 3.77357C14.1424 3.81698 13.9419 3.92412 13.7846 4.08146C13.6272 4.23879 13.5201 4.43925 13.4767 4.65748C13.4333 4.8757 13.4556 5.10191 13.5407 5.30747C13.6259 5.51304 13.7701 5.68874 13.9551 5.81236C14.1401 5.93597 14.3576 6.00195 14.5801 6.00195C14.8784 6.00195 15.1646 5.88343 15.3756 5.67245C15.5866 5.46147 15.7051 5.17532 15.7051 4.87695Z" fill="black"/>
</svg>
