<svg width="20" height="19" viewBox="0 0 20 19" fill="none" xmlns="http://www.w3.org/2000/svg">
<path d="M12.7051 9.5249C12.7051 10.1182 12.5291 10.6983 12.1995 11.1916C11.8698 11.685 11.4013 12.0695 10.8531 12.2965C10.3049 12.5236 9.70175 12.583 9.11981 12.4673C8.53786 12.3515 8.00332 12.0658 7.58376 11.6462C7.1642 11.2267 6.87848 10.6921 6.76272 10.1102C6.64697 9.52823 6.70638 8.92503 6.93344 8.37685C7.1605 7.82867 7.54502 7.36014 8.03837 7.03049C8.53172 6.70085 9.11173 6.5249 9.70508 6.5249C10.5 6.52737 11.2616 6.84424 11.8237 7.40631C12.3857 7.96839 12.7026 8.73001 12.7051 9.5249ZM19.0801 5.3999V13.6499C19.0801 15.0423 18.527 16.3776 17.5424 17.3622C16.5578 18.3468 15.2225 18.8999 13.8301 18.8999H5.58008C4.18769 18.8999 2.85233 18.3468 1.86777 17.3622C0.883201 16.3776 0.330078 15.0423 0.330078 13.6499V5.3999C0.330078 4.00752 0.883201 2.67216 1.86777 1.68759C2.85233 0.703026 4.18769 0.149902 5.58008 0.149902H13.8301C15.2225 0.149902 16.5578 0.703026 17.5424 1.68759C18.527 2.67216 19.0801 4.00752 19.0801 5.3999ZM14.2051 9.5249C14.2051 8.63489 13.9412 7.76486 13.4467 7.02484C12.9522 6.28481 12.2494 5.70804 11.4272 5.36744C10.6049 5.02685 9.70009 4.93774 8.82717 5.11137C7.95426 5.285 7.15243 5.71359 6.5231 6.34292C5.89376 6.97226 5.46518 7.77408 5.29154 8.647C5.11791 9.51991 5.20703 10.4247 5.54762 11.247C5.88821 12.0692 6.46499 12.772 7.20501 13.2665C7.94503 13.761 8.81506 14.0249 9.70508 14.0249C10.8986 14.0249 12.0431 13.5508 12.8871 12.7069C13.731 11.863 14.2051 10.7184 14.2051 9.5249ZM15.7051 4.6499C15.7051 4.4274 15.6391 4.20989 15.5155 4.02489C15.3919 3.83988 15.2162 3.69569 15.0106 3.61054C14.805 3.52539 14.5788 3.50311 14.3606 3.54652C14.1424 3.58993 13.9419 3.69707 13.7846 3.85441C13.6272 4.01174 13.5201 4.2122 13.4767 4.43043C13.4333 4.64865 13.4556 4.87485 13.5407 5.08042C13.6259 5.28599 13.7701 5.46169 13.9551 5.58531C14.1401 5.70892 14.3576 5.7749 14.5801 5.7749C14.8784 5.7749 15.1646 5.65638 15.3756 5.4454C15.5866 5.23442 15.7051 4.94827 15.7051 4.6499Z" fill="black"/>
</svg>
