<svg width="20" height="20" viewBox="0 0 20 20" fill="none" xmlns="http://www.w3.org/2000/svg">
<path d="M12.7051 10.2451C12.7051 10.8385 12.5291 11.4185 12.1995 11.9118C11.8698 12.4052 11.4013 12.7897 10.8531 13.0168C10.3049 13.2438 9.70175 13.3032 9.11981 13.1875C8.53786 13.0717 8.00332 12.786 7.58376 12.3664C7.1642 11.9469 6.87848 11.4123 6.76272 10.8304C6.64697 10.2484 6.70638 9.64524 6.93344 9.09707C7.1605 8.54889 7.54502 8.08035 8.03837 7.75071C8.53172 7.42106 9.11173 7.24512 9.70508 7.24512C10.5 7.24759 11.2616 7.56445 11.8237 8.12653C12.3857 8.6886 12.7026 9.45023 12.7051 10.2451ZM19.0801 6.12012V14.3701C19.0801 15.7625 18.527 17.0979 17.5424 18.0824C16.5578 19.067 15.2225 19.6201 13.8301 19.6201H5.58008C4.18769 19.6201 2.85233 19.067 1.86777 18.0824C0.883201 17.0979 0.330078 15.7625 0.330078 14.3701V6.12012C0.330078 4.72773 0.883201 3.39237 1.86777 2.40781C2.85233 1.42324 4.18769 0.870117 5.58008 0.870117H13.8301C15.2225 0.870117 16.5578 1.42324 17.5424 2.40781C18.527 3.39237 19.0801 4.72773 19.0801 6.12012ZM14.2051 10.2451C14.2051 9.3551 13.9412 8.48507 13.4467 7.74505C12.9522 7.00503 12.2494 6.42825 11.4272 6.08766C10.6049 5.74707 9.70009 5.65795 8.82717 5.83158C7.95426 6.00522 7.15243 6.4338 6.5231 7.06314C5.89376 7.69247 5.46518 8.4943 5.29154 9.36721C5.11791 10.2401 5.20703 11.1449 5.54762 11.9672C5.88821 12.7895 6.46499 13.4923 7.20501 13.9867C7.94503 14.4812 8.81506 14.7451 9.70508 14.7451C10.8986 14.7451 12.0431 14.271 12.8871 13.4271C13.731 12.5832 14.2051 11.4386 14.2051 10.2451ZM15.7051 5.37012C15.7051 5.14761 15.6391 4.93011 15.5155 4.7451C15.3919 4.5601 15.2162 4.4159 15.0106 4.33075C14.805 4.2456 14.5788 4.22333 14.3606 4.26673C14.1424 4.31014 13.9419 4.41729 13.7846 4.57462C13.6272 4.73196 13.5201 4.93241 13.4767 5.15064C13.4333 5.36887 13.4556 5.59507 13.5407 5.80064C13.6259 6.0062 13.7701 6.1819 13.9551 6.30552C14.1401 6.42914 14.3576 6.49512 14.5801 6.49512C14.8784 6.49512 15.1646 6.37659 15.3756 6.16561C15.5866 5.95463 15.7051 5.66849 15.7051 5.37012Z" fill="black"/>
</svg>
