<svg width="20" height="19" viewBox="0 0 20 19" fill="none" xmlns="http://www.w3.org/2000/svg">
<path d="M12.705 9.52515C12.705 10.1185 12.5291 10.6985 12.1994 11.1919C11.8698 11.6852 11.4012 12.0697 10.8531 12.2968C10.3049 12.5238 9.70169 12.5833 9.11975 12.4675C8.5378 12.3517 8.00325 12.066 7.5837 11.6465C7.16414 11.2269 6.87842 10.6924 6.76266 10.1104C6.64691 9.52847 6.70632 8.92527 6.93338 8.3771C7.16044 7.82892 7.54496 7.36038 8.03831 7.03074C8.53165 6.70109 9.11167 6.52515 9.70502 6.52515C10.4999 6.52762 11.2615 6.84448 11.8236 7.40656C12.3857 7.96863 12.7025 8.73026 12.705 9.52515ZM19.08 5.40015V13.6501C19.08 15.0425 18.5269 16.3779 17.5423 17.3625C16.5578 18.347 15.2224 18.9001 13.83 18.9001H5.58002C4.18763 18.9001 2.85227 18.347 1.86771 17.3625C0.88314 16.3779 0.330017 15.0425 0.330017 13.6501V5.40015C0.330017 4.00776 0.88314 2.6724 1.86771 1.68784C2.85227 0.70327 4.18763 0.150146 5.58002 0.150146H13.83C15.2224 0.150146 16.5578 0.70327 17.5423 1.68784C18.5269 2.6724 19.08 4.00776 19.08 5.40015ZM14.205 9.52515C14.205 8.63513 13.9411 7.7651 13.4466 7.02508C12.9522 6.28506 12.2494 5.70828 11.4271 5.36769C10.6048 5.02709 9.70003 4.93798 8.82711 5.11161C7.9542 5.28525 7.15237 5.71383 6.52304 6.34317C5.8937 6.9725 5.46512 7.77433 5.29148 8.64724C5.11785 9.52015 5.20697 10.425 5.54756 11.2472C5.88815 12.0695 6.46493 12.7723 7.20495 13.2668C7.94497 13.7612 8.815 14.0251 9.70502 14.0251C10.8985 14.0251 12.0431 13.551 12.887 12.7071C13.7309 11.8632 14.205 10.7186 14.205 9.52515ZM15.705 4.65015C15.705 4.42764 15.639 4.21014 15.5154 4.02513C15.3918 3.84012 15.2161 3.69593 15.0105 3.61078C14.805 3.52563 14.5788 3.50335 14.3605 3.54676C14.1423 3.59017 13.9419 3.69732 13.7845 3.85465C13.6272 4.01199 13.52 4.21244 13.4766 4.43067C13.4332 4.6489 13.4555 4.8751 13.5407 5.08067C13.6258 5.28623 13.77 5.46193 13.955 5.58555C14.14 5.70917 14.3575 5.77515 14.58 5.77515C14.8784 5.77515 15.1645 5.65662 15.3755 5.44564C15.5865 5.23466 15.705 4.94852 15.705 4.65015Z" fill="black"/>
</svg>
