<svg width="20" height="19" viewBox="0 0 20 19" fill="none" xmlns="http://www.w3.org/2000/svg">
<path d="M12.7051 9.41187C12.7051 10.0052 12.5291 10.5852 12.1995 11.0786C11.8698 11.5719 11.4013 11.9564 10.8531 12.1835C10.3049 12.4106 9.70175 12.47 9.11981 12.3542C8.53786 12.2385 8.00331 11.9527 7.58376 11.5332C7.1642 11.1136 6.87848 10.5791 6.76272 9.99714C6.64697 9.41519 6.70638 8.81199 6.93344 8.26381C7.1605 7.71564 7.54502 7.2471 8.03837 6.91746C8.53172 6.58781 9.11173 6.41187 9.70508 6.41187C10.5 6.41434 11.2616 6.7312 11.8237 7.29328C12.3857 7.85535 12.7026 8.61698 12.7051 9.41187ZM19.0801 5.28687V13.5369C19.0801 14.9293 18.527 16.2646 17.5424 17.2492C16.5578 18.2337 15.2225 18.7869 13.8301 18.7869H5.58008C4.18769 18.7869 2.85233 18.2337 1.86777 17.2492C0.883201 16.2646 0.330078 14.9293 0.330078 13.5369V5.28687C0.330078 3.89448 0.883201 2.55912 1.86777 1.57455C2.85233 0.589989 4.18769 0.0368652 5.58008 0.0368652H13.8301C15.2225 0.0368652 16.5578 0.589989 17.5424 1.57455C18.527 2.55912 19.0801 3.89448 19.0801 5.28687ZM14.2051 9.41187C14.2051 8.52185 13.9412 7.65182 13.4467 6.9118C12.9522 6.17178 12.2494 5.595 11.4272 5.25441C10.6049 4.91381 9.70009 4.8247 8.82717 4.99833C7.95426 5.17197 7.15243 5.60055 6.5231 6.22989C5.89376 6.85922 5.46518 7.66104 5.29154 8.53396C5.11791 9.40687 5.20703 10.3117 5.54762 11.1339C5.88822 11.9562 6.46499 12.659 7.20501 13.1535C7.94503 13.6479 8.81506 13.9119 9.70508 13.9119C10.8986 13.9119 12.0431 13.4378 12.8871 12.5938C13.731 11.7499 14.2051 10.6053 14.2051 9.41187ZM15.7051 4.53687C15.7051 4.31436 15.6391 4.09685 15.5155 3.91185C15.3919 3.72684 15.2162 3.58265 15.0106 3.4975C14.805 3.41235 14.5788 3.39007 14.3606 3.43348C14.1424 3.47689 13.9419 3.58404 13.7846 3.74137C13.6272 3.8987 13.5201 4.09916 13.4767 4.31739C13.4333 4.53562 13.4556 4.76182 13.5407 4.96738C13.6259 5.17295 13.7701 5.34865 13.9551 5.47227C14.1401 5.59589 14.3576 5.66187 14.5801 5.66187C14.8784 5.66187 15.1646 5.54334 15.3756 5.33236C15.5866 5.12138 15.7051 4.83523 15.7051 4.53687Z" fill="black"/>
</svg>
