<svg width="20" height="25" viewBox="0 0 20 25" fill="none" xmlns="http://www.w3.org/2000/svg">
<path d="M10 12.5498C10.6875 12.5498 11.2763 12.3146 11.7663 11.8442C12.2563 11.3738 12.5008 10.809 12.5 10.1498C12.5 9.48981 12.255 8.9246 11.765 8.4542C11.275 7.9838 10.6867 7.749 10 7.7498C9.3125 7.7498 8.72375 7.98501 8.23375 8.45541C7.74375 8.92581 7.49917 9.49061 7.5 10.1498C7.5 10.8098 7.745 11.375 8.235 11.8454C8.725 12.3158 9.31333 12.5506 10 12.5498ZM10 24.5498C6.64583 21.8098 4.14083 19.265 2.485 16.9154C0.829167 14.5658 0.000833333 12.3906 0 10.3898C0 7.3898 1.00542 4.9998 3.01625 3.2198C5.02708 1.4398 7.355 0.549805 10 0.549805C12.6458 0.549805 14.9742 1.4398 16.985 3.2198C18.9958 4.9998 20.0008 7.3898 20 10.3898C20 12.3898 19.1717 14.565 17.515 16.9154C15.8583 19.2658 13.3533 21.8106 10 24.5498Z" fill="black"/>
</svg>
