<svg width="20" height="25" viewBox="0 0 20 25" fill="none" xmlns="http://www.w3.org/2000/svg">
<path d="M10 12.55C10.6875 12.55 11.2763 12.3148 11.7663 11.8444C12.2563 11.374 12.5008 10.8092 12.5 10.15C12.5 9.49005 12.255 8.92485 11.765 8.45445C11.275 7.98405 10.6867 7.74925 10 7.75005C9.3125 7.75005 8.72375 7.98525 8.23375 8.45565C7.74375 8.92605 7.49917 9.49085 7.5 10.15C7.5 10.81 7.745 11.3752 8.235 11.8456C8.725 12.316 9.31333 12.5508 10 12.55ZM10 24.55C6.64583 21.81 4.14083 19.2652 2.485 16.9156C0.829167 14.566 0.000833333 12.3908 0 10.39C0 7.39005 1.00542 5.00005 3.01625 3.22005C5.02708 1.44005 7.355 0.550049 10 0.550049C12.6458 0.550049 14.9742 1.44005 16.985 3.22005C18.9958 5.00005 20.0008 7.39005 20 10.39C20 12.39 19.1717 14.5652 17.515 16.9156C15.8583 19.266 13.3533 21.8108 10 24.55Z" fill="black"/>
</svg>
