<svg width="20" height="25" viewBox="0 0 20 25" fill="none" xmlns="http://www.w3.org/2000/svg">
<path d="M10 12.4368C10.6875 12.4368 11.2762 12.2016 11.7663 11.7312C12.2563 11.2608 12.5008 10.696 12.5 10.0368C12.5 9.37677 12.255 8.81157 11.765 8.34117C11.275 7.87077 10.6867 7.63597 10 7.63677C9.3125 7.63677 8.72375 7.87197 8.23375 8.34237C7.74375 8.81277 7.49917 9.37757 7.5 10.0368C7.5 10.6968 7.745 11.262 8.235 11.7324C8.725 12.2028 9.31333 12.4376 10 12.4368ZM10 24.4368C6.64583 21.6968 4.14083 19.152 2.485 16.8024C0.829167 14.4528 0.000833333 12.2776 0 10.2768C0 7.27677 1.00542 4.88677 3.01625 3.10677C5.02708 1.32677 7.355 0.436768 10 0.436768C12.6458 0.436768 14.9742 1.32677 16.985 3.10677C18.9958 4.88677 20.0008 7.27677 20 10.2768C20 12.2768 19.1717 14.452 17.515 16.8024C15.8583 19.1528 13.3533 21.6976 10 24.4368Z" fill="black"/>
</svg>
