<svg width="20" height="25" viewBox="0 0 20 25" fill="none" xmlns="http://www.w3.org/2000/svg">
<path d="M10 12.7769C10.6875 12.7769 11.2763 12.5417 11.7663 12.0713C12.2563 11.6009 12.5008 11.0361 12.5 10.3769C12.5 9.71686 12.255 9.15166 11.765 8.68126C11.275 8.21086 10.6867 7.97606 10 7.97686C9.3125 7.97686 8.72375 8.21206 8.23375 8.68246C7.74375 9.15286 7.49917 9.71766 7.5 10.3769C7.5 11.0369 7.745 11.6021 8.235 12.0725C8.725 12.5429 9.31333 12.7777 10 12.7769ZM10 24.7769C6.64583 22.0369 4.14083 19.4921 2.485 17.1425C0.829167 14.7929 0.000833333 12.6177 0 10.6169C0 7.61686 1.00542 5.22686 3.01625 3.44686C5.02708 1.66686 7.355 0.776855 10 0.776855C12.6458 0.776855 14.9742 1.66686 16.985 3.44686C18.9958 5.22686 20.0008 7.61686 20 10.6169C20 12.6169 19.1717 14.7921 17.515 17.1425C15.8583 19.4929 13.3533 22.0377 10 24.7769Z" fill="black"/>
</svg>
