<svg width="20" height="25" viewBox="0 0 20 25" fill="none" xmlns="http://www.w3.org/2000/svg">
<path d="M10 12.27C10.6875 12.27 11.2763 12.0348 11.7663 11.5644C12.2563 11.094 12.5008 10.5292 12.5 9.87002C12.5 9.21002 12.255 8.64482 11.765 8.17442C11.275 7.70402 10.6867 7.46922 10 7.47002C9.3125 7.47002 8.72375 7.70522 8.23375 8.17562C7.74375 8.64602 7.49917 9.21082 7.5 9.87002C7.5 10.53 7.745 11.0952 8.235 11.5656C8.725 12.036 9.31333 12.2708 10 12.27ZM10 24.27C6.64583 21.53 4.14083 18.9852 2.485 16.6356C0.829167 14.286 0.000833333 12.1108 0 10.11C0 7.11002 1.00542 4.72002 3.01625 2.94002C5.02708 1.16002 7.355 0.27002 10 0.27002C12.6458 0.27002 14.9742 1.16002 16.985 2.94002C18.9958 4.72002 20.0008 7.11002 20 10.11C20 12.11 19.1717 14.2852 17.515 16.6356C15.8583 18.986 13.3533 21.5308 10 24.27Z" fill="black"/>
</svg>
