<svg width="22" height="23" viewBox="0 0 22 23" fill="none" xmlns="http://www.w3.org/2000/svg">
<path d="M20.7626 22.27C17.9029 22.27 15.2125 21.7292 12.6915 20.6475C10.1706 19.5659 7.97075 18.0853 6.09212 16.2057C4.21349 14.3269 2.72862 12.1269 1.63752 9.60572C0.546415 7.08452 0.00123084 4.38549 0.00196411 1.50862C-0.0163676 1.17862 0.0936225 0.889686 0.331935 0.64182C0.570247 0.393953 0.863554 0.27002 1.21186 0.27002H5.50147C5.83144 0.27002 6.11558 0.393953 6.3539 0.64182C6.59221 0.889686 6.71136 1.18742 6.71136 1.53502C6.71136 2.34169 6.76636 3.10252 6.87635 3.81752C6.98634 4.53252 7.16049 5.21085 7.3988 5.85252C7.49046 6.05419 7.50879 6.26025 7.4538 6.47072C7.3988 6.68119 7.28881 6.87845 7.12383 7.06252L4.37407 9.81252C5.16234 11.4259 6.28057 12.9567 7.72877 14.405C9.17698 15.8534 10.7352 17.0084 12.4034 17.87L15.1531 15.12C15.3181 14.955 15.5106 14.845 15.7306 14.79C15.9505 14.735 16.1705 14.7534 16.3905 14.845C17.0688 15.065 17.7701 15.2348 18.4946 15.3543C19.2191 15.4739 19.9659 15.5333 20.7351 15.5325C21.0834 15.5325 21.3815 15.6609 21.6293 15.9175C21.8772 16.1742 22.0007 16.4859 22 16.8525V21.06C22 21.39 21.8808 21.6742 21.6425 21.9125C21.4042 22.1509 21.1109 22.27 20.7626 22.27ZM14.4382 18.97C15.2631 19.2817 16.1247 19.5292 17.0229 19.7125C17.9212 19.8959 18.8469 20.015 19.8002 20.07V17.705C19.2319 17.6684 18.6497 17.6042 18.0535 17.5125C17.4574 17.4209 16.8664 17.2834 16.2805 17.1L14.4382 18.97ZM19.8002 11.27C19.8002 8.81335 18.9478 6.73252 17.2429 5.02752C15.5381 3.32252 13.4574 2.47002 11.001 2.47002V0.27002C12.5225 0.27002 13.9524 0.558953 15.2906 1.13682C16.6288 1.71469 17.7929 2.49825 18.7828 3.48752C19.7727 4.47752 20.5566 5.64169 21.1344 6.98002C21.7122 8.31835 22.0007 9.74835 22 11.27H19.8002ZM15.4006 11.27C15.4006 10.06 14.9698 9.02419 14.1082 8.16252C13.2466 7.30085 12.2109 6.87002 11.001 6.87002V4.67002C12.8341 4.67002 14.3923 5.31169 15.6756 6.59502C16.9588 7.87835 17.6004 9.43669 17.6004 11.27H15.4006ZM3.30167 7.77752L5.11651 5.93502C4.96985 5.40335 4.84593 4.84419 4.74474 4.25752C4.64355 3.67085 4.57499 3.07502 4.53906 2.47002H2.22926C2.26593 3.35002 2.37592 4.23002 2.55924 5.11002C2.74255 5.99002 2.99003 6.87919 3.30167 7.77752Z" fill="black"/>
</svg>
