<svg width="22" height="23" viewBox="0 0 22 23" fill="none" xmlns="http://www.w3.org/2000/svg">
<path d="M20.7626 22.5498C17.9029 22.5498 15.2125 22.009 12.6915 20.9273C10.1706 19.8456 7.97075 18.365 6.09212 16.4855C4.21349 14.6067 2.72862 12.4067 1.63752 9.88551C0.546415 7.36431 0.00123084 4.66527 0.00196411 1.7884C-0.0163676 1.4584 0.0936225 1.16947 0.331935 0.921605C0.570247 0.673738 0.863554 0.549805 1.21186 0.549805H5.50147C5.83144 0.549805 6.11558 0.673738 6.3539 0.921605C6.59221 1.16947 6.71136 1.4672 6.71136 1.8148C6.71136 2.62147 6.76636 3.3823 6.87635 4.0973C6.98634 4.8123 7.16049 5.49064 7.3988 6.1323C7.49046 6.33397 7.50879 6.54004 7.4538 6.7505C7.3988 6.96097 7.28881 7.15824 7.12383 7.34231L4.37407 10.0923C5.16234 11.7056 6.28057 13.2365 7.72877 14.6848C9.17698 16.1331 10.7352 17.2881 12.4034 18.1498L15.1531 15.3998C15.3181 15.2348 15.5106 15.1248 15.7306 15.0698C15.9505 15.0148 16.1705 15.0331 16.3905 15.1248C17.0688 15.3448 17.7701 15.5146 18.4946 15.6341C19.2191 15.7536 19.9659 15.813 20.7351 15.8123C21.0834 15.8123 21.3815 15.9406 21.6293 16.1973C21.8772 16.454 22.0007 16.7656 22 17.1323V21.3398C22 21.6698 21.8808 21.954 21.6425 22.1923C21.4042 22.4306 21.1109 22.5498 20.7626 22.5498ZM14.4382 19.2498C15.2631 19.5615 16.1247 19.809 17.0229 19.9923C17.9212 20.1756 18.8469 20.2948 19.8002 20.3498V17.9848C19.2319 17.9481 18.6497 17.884 18.0535 17.7923C17.4574 17.7006 16.8664 17.5631 16.2805 17.3798L14.4382 19.2498ZM19.8002 11.5498C19.8002 9.09314 18.9478 7.0123 17.2429 5.3073C15.5381 3.6023 13.4574 2.7498 11.001 2.7498V0.549805C12.5225 0.549805 13.9524 0.838738 15.2906 1.4166C16.6288 1.99447 17.7929 2.77804 18.7828 3.7673C19.7727 4.7573 20.5566 5.92147 21.1344 7.25981C21.7122 8.59814 22.0007 10.0281 22 11.5498H19.8002ZM15.4006 11.5498C15.4006 10.3398 14.9698 9.30397 14.1082 8.44231C13.2466 7.58064 12.2109 7.1498 11.001 7.1498V4.9498C12.8341 4.9498 14.3923 5.59147 15.6756 6.8748C16.9588 8.15814 17.6004 9.71647 17.6004 11.5498H15.4006ZM3.30167 8.0573L5.11651 6.2148C4.96985 5.68314 4.84593 5.12397 4.74474 4.5373C4.64355 3.95064 4.57499 3.3548 4.53906 2.7498H2.22926C2.26593 3.6298 2.37592 4.5098 2.55924 5.3898C2.74255 6.2698 2.99003 7.15897 3.30167 8.0573Z" fill="black"/>
</svg>
