<svg width="22" height="23" viewBox="0 0 22 23" fill="none" xmlns="http://www.w3.org/2000/svg">
<path d="M20.7626 22.4368C17.9029 22.4368 15.2125 21.8959 12.6915 20.8143C10.1706 19.7326 7.97075 18.252 6.09212 16.3725C4.21349 14.4937 2.72862 12.2937 1.63752 9.77247C0.546415 7.25127 0.00123084 4.55223 0.00196411 1.67537C-0.0163676 1.34537 0.0936225 1.05643 0.331935 0.808568C0.570247 0.560701 0.863554 0.436768 1.21186 0.436768H5.50147C5.83144 0.436768 6.11558 0.560701 6.3539 0.808568C6.59221 1.05643 6.71136 1.35417 6.71136 1.70177C6.71136 2.50843 6.76636 3.26927 6.87635 3.98427C6.98634 4.69927 7.16049 5.3776 7.3988 6.01927C7.49046 6.22093 7.50879 6.427 7.4538 6.63747C7.3988 6.84793 7.28881 7.0452 7.12383 7.22927L4.37407 9.97927C5.16234 11.5926 6.28057 13.1234 7.72877 14.5718C9.17698 16.0201 10.7352 17.1751 12.4034 18.0368L15.1531 15.2868C15.3181 15.1218 15.5106 15.0118 15.7306 14.9568C15.9505 14.9018 16.1705 14.9201 16.3905 15.0118C17.0688 15.2318 17.7701 15.4015 18.4946 15.5211C19.2191 15.6406 19.9659 15.7 20.7351 15.6993C21.0834 15.6993 21.3815 15.8276 21.6293 16.0843C21.8772 16.3409 22.0007 16.6526 22 17.0193V21.2268C22 21.5568 21.8808 21.8409 21.6425 22.0793C21.4042 22.3176 21.1109 22.4368 20.7626 22.4368ZM14.4382 19.1368C15.2631 19.4484 16.1247 19.6959 17.0229 19.8793C17.9212 20.0626 18.8469 20.1818 19.8002 20.2368V17.8718C19.2319 17.8351 18.6497 17.7709 18.0535 17.6793C17.4574 17.5876 16.8664 17.4501 16.2805 17.2668L14.4382 19.1368ZM19.8002 11.4368C19.8002 8.9801 18.9478 6.89927 17.2429 5.19427C15.5381 3.48927 13.4574 2.63677 11.001 2.63677V0.436768C12.5225 0.436768 13.9524 0.725701 15.2906 1.30357C16.6288 1.88143 17.7929 2.665 18.7828 3.65427C19.7727 4.64427 20.5566 5.80843 21.1344 7.14677C21.7122 8.4851 22.0007 9.9151 22 11.4368H19.8002ZM15.4006 11.4368C15.4006 10.2268 14.9698 9.19094 14.1082 8.32927C13.2466 7.4676 12.2109 7.03677 11.001 7.03677V4.83677C12.8341 4.83677 14.3923 5.47843 15.6756 6.76177C16.9588 8.0451 17.6004 9.60343 17.6004 11.4368H15.4006ZM3.30167 7.94427L5.11651 6.10177C4.96985 5.5701 4.84593 5.01093 4.74474 4.42427C4.64355 3.8376 4.57499 3.24177 4.53906 2.63677H2.22926C2.26593 3.51677 2.37592 4.39677 2.55924 5.27677C2.74255 6.15677 2.99003 7.04593 3.30167 7.94427Z" fill="black"/>
</svg>
