<svg width="22" height="23" viewBox="0 0 22 23" fill="none" xmlns="http://www.w3.org/2000/svg">
<path d="M20.7626 22.55C17.9029 22.55 15.2125 22.0092 12.6915 20.9275C10.1706 19.8459 7.97075 18.3653 6.09212 16.4857C4.21349 14.6069 2.72862 12.4069 1.63752 9.88575C0.546415 7.36455 0.00123084 4.66552 0.00196411 1.78865C-0.0163676 1.45865 0.0936225 1.16972 0.331935 0.921849C0.570247 0.673982 0.863554 0.550049 1.21186 0.550049H5.50147C5.83144 0.550049 6.11558 0.673982 6.3539 0.921849C6.59221 1.16972 6.71136 1.46745 6.71136 1.81505C6.71136 2.62172 6.76636 3.38255 6.87635 4.09755C6.98634 4.81255 7.16049 5.49088 7.3988 6.13255C7.49046 6.33422 7.50879 6.54028 7.4538 6.75075C7.3988 6.96122 7.28881 7.15848 7.12383 7.34255L4.37407 10.0925C5.16234 11.7059 6.28057 13.2367 7.72877 14.685C9.17698 16.1334 10.7352 17.2884 12.4034 18.15L15.1531 15.4C15.3181 15.235 15.5106 15.125 15.7306 15.07C15.9505 15.015 16.1705 15.0334 16.3905 15.125C17.0688 15.345 17.7701 15.5148 18.4946 15.6343C19.2191 15.7539 19.9659 15.8133 20.7351 15.8125C21.0834 15.8125 21.3815 15.9409 21.6293 16.1975C21.8772 16.4542 22.0007 16.7659 22 17.1326V21.34C22 21.67 21.8808 21.9542 21.6425 22.1925C21.4042 22.4309 21.1109 22.55 20.7626 22.55ZM14.4382 19.25C15.2631 19.5617 16.1247 19.8092 17.0229 19.9925C17.9212 20.1759 18.8469 20.295 19.8002 20.35V17.985C19.2319 17.9484 18.6497 17.8842 18.0535 17.7925C17.4574 17.7009 16.8664 17.5634 16.2805 17.38L14.4382 19.25ZM19.8002 11.55C19.8002 9.09338 18.9478 7.01255 17.2429 5.30755C15.5381 3.60255 13.4574 2.75005 11.001 2.75005V0.550049C12.5225 0.550049 13.9524 0.838982 15.2906 1.41685C16.6288 1.99472 17.7929 2.77828 18.7828 3.76755C19.7727 4.75755 20.5566 5.92172 21.1344 7.26005C21.7122 8.59838 22.0007 10.0284 22 11.55H19.8002ZM15.4006 11.55C15.4006 10.34 14.9698 9.30422 14.1082 8.44255C13.2466 7.58088 12.2109 7.15005 11.001 7.15005V4.95005C12.8341 4.95005 14.3923 5.59172 15.6756 6.87505C16.9588 8.15838 17.6004 9.71672 17.6004 11.55H15.4006ZM3.30167 8.05755L5.11651 6.21505C4.96985 5.68338 4.84593 5.12422 4.74474 4.53755C4.64355 3.95088 4.57499 3.35505 4.53906 2.75005H2.22926C2.26593 3.63005 2.37592 4.51005 2.55924 5.39005C2.74255 6.27005 2.99003 7.15922 3.30167 8.05755Z" fill="black"/>
</svg>
