<svg width="22" height="23" viewBox="0 0 22 23" fill="none" xmlns="http://www.w3.org/2000/svg">
<path d="M20.7626 22.7769C17.9029 22.7769 15.2125 22.236 12.6915 21.1544C10.1706 20.0727 7.97075 18.5921 6.09212 16.7126C4.21349 14.8338 2.72862 12.6338 1.63752 10.1126C0.546415 7.59136 0.00123084 4.89232 0.00196411 2.01546C-0.0163676 1.68546 0.0936225 1.39652 0.331935 1.14866C0.570247 0.900789 0.863554 0.776855 1.21186 0.776855H5.50147C5.83144 0.776855 6.11558 0.900789 6.3539 1.14866C6.59221 1.39652 6.71136 1.69426 6.71136 2.04186C6.71136 2.84852 6.76636 3.60936 6.87635 4.32436C6.98634 5.03936 7.16049 5.71769 7.3988 6.35936C7.49046 6.56102 7.50879 6.76709 7.4538 6.97756C7.3988 7.18802 7.28881 7.38529 7.12383 7.56936L4.37407 10.3194C5.16234 11.9327 6.28057 13.4635 7.72877 14.9119C9.17698 16.3602 10.7352 17.5152 12.4034 18.3769L15.1531 15.6269C15.3181 15.4619 15.5106 15.3519 15.7306 15.2969C15.9505 15.2419 16.1705 15.2602 16.3905 15.3519C17.0688 15.5719 17.7701 15.7416 18.4946 15.8612C19.2191 15.9807 19.9659 16.0401 20.7351 16.0394C21.0834 16.0394 21.3815 16.1677 21.6293 16.4244C21.8772 16.681 22.0007 16.9927 22 17.3594V21.5669C22 21.8969 21.8808 22.181 21.6425 22.4194C21.4042 22.6577 21.1109 22.7769 20.7626 22.7769ZM14.4382 19.4769C15.2631 19.7885 16.1247 20.036 17.0229 20.2194C17.9212 20.4027 18.8469 20.5219 19.8002 20.5769V18.2119C19.2319 18.1752 18.6497 18.111 18.0535 18.0194C17.4574 17.9277 16.8664 17.7902 16.2805 17.6069L14.4382 19.4769ZM19.8002 11.7769C19.8002 9.32019 18.9478 7.23936 17.2429 5.53436C15.5381 3.82936 13.4574 2.97686 11.001 2.97686V0.776855C12.5225 0.776855 13.9524 1.06579 15.2906 1.64366C16.6288 2.22152 17.7929 3.00509 18.7828 3.99436C19.7727 4.98436 20.5566 6.14852 21.1344 7.48686C21.7122 8.82519 22.0007 10.2552 22 11.7769H19.8002ZM15.4006 11.7769C15.4006 10.5669 14.9698 9.53102 14.1082 8.66936C13.2466 7.80769 12.2109 7.37686 11.001 7.37686V5.17686C12.8341 5.17686 14.3923 5.81852 15.6756 7.10186C16.9588 8.38519 17.6004 9.94352 17.6004 11.7769H15.4006ZM3.30167 8.28436L5.11651 6.44186C4.96985 5.91019 4.84593 5.35102 4.74474 4.76436C4.64355 4.17769 4.57499 3.58186 4.53906 2.97686H2.22926C2.26593 3.85686 2.37592 4.73686 2.55924 5.61686C2.74255 6.49686 2.99003 7.38602 3.30167 8.28436Z" fill="black"/>
</svg>
