<svg width="21" height="18" viewBox="0 0 21 18" fill="none" xmlns="http://www.w3.org/2000/svg">
<path d="M21.0001 2.91187C20.2301 3.26187 19.4001 3.49187 18.5401 3.60187C19.4201 3.07187 20.1001 2.23187 20.4201 1.22187C19.5901 1.72187 18.6701 2.07187 17.7001 2.27187C16.9101 1.41187 15.8001 0.911865 14.5401 0.911865C12.1901 0.911865 10.2701 2.83187 10.2701 5.20187C10.2701 5.54187 10.3101 5.87187 10.3801 6.18187C6.82008 6.00187 3.65008 4.29187 1.54008 1.70187C1.17008 2.33187 0.960078 3.07187 0.960078 3.85187C0.960078 5.34187 1.71008 6.66187 2.87008 7.41187C2.16008 7.41187 1.50008 7.21187 0.920078 6.91187V6.94186C0.920078 9.02186 2.40008 10.7619 4.36008 11.1519C3.73081 11.3241 3.07017 11.348 2.43008 11.2219C2.70168 12.0743 3.23361 12.8203 3.95109 13.3548C4.66857 13.8893 5.53553 14.1856 6.43008 14.2019C4.91371 15.4023 3.03407 16.0512 1.10008 16.0419C0.760078 16.0419 0.420078 16.0219 0.0800781 15.9819C1.98008 17.2019 4.24008 17.9119 6.66008 17.9119C14.5401 17.9119 18.8701 11.3719 18.8701 5.70187C18.8701 5.51187 18.8701 5.33186 18.8601 5.14186C19.7001 4.54186 20.4201 3.78187 21.0001 2.91187Z" fill="black"/>
</svg>
