<svg width="21" height="18" viewBox="0 0 21 18" fill="none" xmlns="http://www.w3.org/2000/svg">
<path d="M21.0001 2.25195C20.2301 2.60195 19.4001 2.83195 18.5401 2.94195C19.4201 2.41195 20.1001 1.57195 20.4201 0.561953C19.5901 1.06195 18.6701 1.41195 17.7001 1.61195C16.9101 0.751953 15.8001 0.251953 14.5401 0.251953C12.1901 0.251953 10.2701 2.17195 10.2701 4.54195C10.2701 4.88195 10.3101 5.21195 10.3801 5.52195C6.82008 5.34195 3.65008 3.63195 1.54008 1.04195C1.17008 1.67195 0.960078 2.41195 0.960078 3.19195C0.960078 4.68195 1.71008 6.00195 2.87008 6.75195C2.16008 6.75195 1.50008 6.55195 0.920078 6.25195V6.28195C0.920078 8.36195 2.40008 10.102 4.36008 10.492C3.73081 10.6642 3.07017 10.6881 2.43008 10.562C2.70168 11.4144 3.23362 12.1604 3.95109 12.6949C4.66857 13.2294 5.53553 13.5256 6.43008 13.542C4.91371 14.7424 3.03407 15.3913 1.10008 15.382C0.760078 15.382 0.420078 15.362 0.0800781 15.322C1.98008 16.542 4.24008 17.252 6.66008 17.252C14.5401 17.252 18.8701 10.712 18.8701 5.04195C18.8701 4.85195 18.8701 4.67195 18.8601 4.48195C19.7001 3.88195 20.4201 3.12195 21.0001 2.25195Z" fill="black"/>
</svg>
