<svg width="21" height="18" viewBox="0 0 21 18" fill="none" xmlns="http://www.w3.org/2000/svg">
<path d="M21.0001 2.0249C20.2301 2.3749 19.4001 2.6049 18.5401 2.7149C19.4201 2.1849 20.1001 1.3449 20.4201 0.334902C19.5901 0.834902 18.6701 1.1849 17.7001 1.3849C16.9101 0.524902 15.8001 0.0249023 14.5401 0.0249023C12.1901 0.0249023 10.2701 1.9449 10.2701 4.3149C10.2701 4.6549 10.3101 4.9849 10.3801 5.2949C6.82008 5.1149 3.65008 3.4049 1.54008 0.814902C1.17008 1.4449 0.960078 2.1849 0.960078 2.9649C0.960078 4.4549 1.71008 5.7749 2.87008 6.5249C2.16008 6.5249 1.50008 6.3249 0.920078 6.0249V6.0549C0.920078 8.1349 2.40008 9.8749 4.36008 10.2649C3.73081 10.4371 3.07017 10.4611 2.43008 10.3349C2.70168 11.1874 3.23362 11.9333 3.95109 12.4678C4.66857 13.0024 5.53553 13.2986 6.43008 13.3149C4.91371 14.5153 3.03407 15.1642 1.10008 15.1549C0.760078 15.1549 0.420078 15.1349 0.0800781 15.0949C1.98008 16.3149 4.24008 17.0249 6.66008 17.0249C14.5401 17.0249 18.8701 10.4849 18.8701 4.8149C18.8701 4.6249 18.8701 4.4449 18.8601 4.2549C19.7001 3.6549 20.4201 2.8949 21.0001 2.0249Z" fill="black"/>
</svg>
