<svg width="21" height="18" viewBox="0 0 21 18" fill="none" xmlns="http://www.w3.org/2000/svg">
<path d="M21.0001 2.74512C20.2301 3.09512 19.4001 3.32512 18.5401 3.43512C19.4201 2.90512 20.1001 2.06512 20.4201 1.05512C19.5901 1.55512 18.6701 1.90512 17.7001 2.10512C16.9101 1.24512 15.8001 0.745117 14.5401 0.745117C12.1901 0.745117 10.2701 2.66512 10.2701 5.03512C10.2701 5.37512 10.3101 5.70512 10.3801 6.01512C6.82008 5.83512 3.65008 4.12512 1.54008 1.53512C1.17008 2.16512 0.960078 2.90512 0.960078 3.68512C0.960078 5.17512 1.71008 6.49512 2.87008 7.24512C2.16008 7.24512 1.50008 7.04512 0.920078 6.74512V6.77512C0.920078 8.85512 2.40008 10.5951 4.36008 10.9851C3.73081 11.1573 3.07017 11.1813 2.43008 11.0551C2.70168 11.9076 3.23362 12.6535 3.95109 13.188C4.66857 13.7226 5.53553 14.0188 6.43008 14.0351C4.91371 15.2356 3.03407 15.8844 1.10008 15.8751C0.760078 15.8751 0.420078 15.8551 0.0800781 15.8151C1.98008 17.0351 4.24008 17.7451 6.66008 17.7451C14.5401 17.7451 18.8701 11.2051 18.8701 5.53512C18.8701 5.34512 18.8701 5.16512 18.8601 4.97512C19.7001 4.37512 20.4201 3.61512 21.0001 2.74512Z" fill="black"/>
</svg>
