<svg width="21" height="18" viewBox="0 0 21 18" fill="none" xmlns="http://www.w3.org/2000/svg">
<path d="M21 2.02515C20.23 2.37515 19.4 2.60515 18.54 2.71515C19.42 2.18515 20.1 1.34515 20.42 0.335146C19.59 0.835146 18.67 1.18515 17.7 1.38515C16.91 0.525147 15.8 0.0251465 14.54 0.0251465C12.19 0.0251465 10.27 1.94515 10.27 4.31515C10.27 4.65515 10.31 4.98515 10.38 5.29515C6.82002 5.11515 3.65002 3.40515 1.54002 0.815146C1.17002 1.44515 0.960017 2.18515 0.960017 2.96515C0.960017 4.45515 1.71002 5.77515 2.87002 6.52515C2.16002 6.52515 1.50002 6.32515 0.920017 6.02515V6.05515C0.920017 8.13515 2.40002 9.87515 4.36002 10.2651C3.73074 10.4374 3.07011 10.4613 2.43002 10.3351C2.70162 11.1876 3.23355 11.9336 3.95103 12.4681C4.66851 13.0026 5.53546 13.2988 6.43002 13.3151C4.91365 14.5156 3.03401 15.1645 1.10002 15.1551C0.760017 15.1551 0.420017 15.1351 0.0800171 15.0951C1.98002 16.3151 4.24002 17.0251 6.66002 17.0251C14.54 17.0251 18.87 10.4851 18.87 4.81515C18.87 4.62515 18.87 4.44515 18.86 4.25515C19.7 3.65515 20.42 2.89515 21 2.02515Z" fill="black"/>
</svg>
