<svg width="21" height="18" viewBox="0 0 21 18" fill="none" xmlns="http://www.w3.org/2000/svg">
<path d="M21.0001 2.02515C20.2301 2.37515 19.4001 2.60515 18.5401 2.71515C19.4201 2.18515 20.1001 1.34515 20.4201 0.335146C19.5901 0.835146 18.6701 1.18515 17.7001 1.38515C16.9101 0.525147 15.8001 0.0251465 14.5401 0.0251465C12.1901 0.0251465 10.2701 1.94515 10.2701 4.31515C10.2701 4.65515 10.3101 4.98515 10.3801 5.29515C6.82008 5.11515 3.65008 3.40515 1.54008 0.815146C1.17008 1.44515 0.960078 2.18515 0.960078 2.96515C0.960078 4.45515 1.71008 5.77515 2.87008 6.52515C2.16008 6.52515 1.50008 6.32515 0.920078 6.02515V6.05515C0.920078 8.13515 2.40008 9.87515 4.36008 10.2651C3.73081 10.4374 3.07017 10.4613 2.43008 10.3351C2.70168 11.1876 3.23362 11.9336 3.95109 12.4681C4.66857 13.0026 5.53553 13.2988 6.43008 13.3151C4.91371 14.5156 3.03407 15.1645 1.10008 15.1551C0.760078 15.1551 0.420078 15.1351 0.0800781 15.0951C1.98008 16.3151 4.24008 17.0251 6.66008 17.0251C14.5401 17.0251 18.8701 10.4851 18.8701 4.81515C18.8701 4.62515 18.8701 4.44515 18.8601 4.25515C19.7001 3.65515 20.4201 2.89515 21.0001 2.02515Z" fill="black"/>
</svg>
