<svg width="925" height="392" viewBox="0 0 925 392" fill="none" xmlns="http://www.w3.org/2000/svg">
<mask id="path-1-outside-1_460_3681" maskUnits="userSpaceOnUse" x="0.5" y="-2" width="924" height="394" fill="black">
<rect fill="white" x="0.5" y="-2" width="924" height="394"/>
<path fill-rule="evenodd" clip-rule="evenodd" d="M462.5 284.422C208.449 284.422 2.5 220.752 2.5 142.211C2.5 63.6699 208.449 0 462.5 0C716.551 0 922.5 63.6699 922.5 142.211C922.5 200.938 807.353 251.351 643.049 273.049L750.429 390L572.485 280.331C537.244 283.004 500.408 284.422 462.5 284.422Z"/>
</mask>
<path fill-rule="evenodd" clip-rule="evenodd" d="M462.5 284.422C208.449 284.422 2.5 220.752 2.5 142.211C2.5 63.6699 208.449 0 462.5 0C716.551 0 922.5 63.6699 922.5 142.211C922.5 200.938 807.353 251.351 643.049 273.049L750.429 390L572.485 280.331C537.244 283.004 500.408 284.422 462.5 284.422Z" fill="white"/>
<path d="M643.049 273.049L642.787 271.067C642.048 271.164 641.424 271.665 641.169 272.367C640.915 273.068 641.071 273.852 641.576 274.402L643.049 273.049ZM750.429 390L749.38 391.703C750.23 392.226 751.336 392.043 751.972 391.273C752.607 390.503 752.578 389.383 751.902 388.647L750.429 390ZM572.485 280.331L573.535 278.628C573.175 278.407 572.755 278.305 572.334 278.337L572.485 280.331ZM0.5 142.211C0.5 162.788 13.9845 182.015 37.4689 199.18C60.9956 216.377 94.9109 231.779 136.64 244.68C220.123 270.489 335.331 286.422 462.5 286.422V282.422C335.618 282.422 220.826 266.519 137.822 240.858C96.3073 228.024 62.8571 212.783 39.8293 195.951C16.7591 179.089 4.5 160.904 4.5 142.211H0.5ZM462.5 -2C335.331 -2 220.123 13.9328 136.64 39.7418C94.9109 52.6426 60.9956 68.0451 37.4689 85.2413C13.9845 102.407 0.5 121.633 0.5 142.211H4.5C4.5 123.518 16.7591 105.333 39.8293 88.4706C62.8571 71.6391 96.3073 56.3977 137.822 43.5634C220.826 17.9022 335.618 2 462.5 2V-2ZM924.5 142.211C924.5 121.633 911.015 102.407 887.531 85.2413C864.004 68.0451 830.089 52.6426 788.36 39.7418C704.877 13.9328 589.669 -2 462.5 -2V2C589.382 2 704.174 17.9022 787.178 43.5634C828.693 56.3977 862.143 71.6391 885.171 88.4706C908.241 105.333 920.5 123.518 920.5 142.211H924.5ZM643.311 275.032C725.574 264.169 795.651 246.104 845.223 223.334C870.005 211.951 889.763 199.346 903.353 185.795C916.95 172.237 924.5 157.595 924.5 142.211H920.5C920.5 156.19 913.657 169.873 900.529 182.962C887.395 196.059 868.097 208.425 843.554 219.699C794.477 242.241 724.829 260.232 642.787 271.067L643.311 275.032ZM641.576 274.402L748.956 391.353L751.902 388.647L644.522 271.697L641.576 274.402ZM751.479 388.297L573.535 278.628L571.436 282.034L749.38 391.703L751.479 388.297ZM462.5 286.422C500.457 286.422 537.344 285.002 572.637 282.325L572.334 278.337C537.144 281.006 500.358 282.422 462.5 282.422V286.422Z" fill="black" mask="url(#path-1-outside-1_460_3681)"/>
</svg>
