<svg width="924" height="392" viewBox="0 0 924 392" fill="none" xmlns="http://www.w3.org/2000/svg">
<mask id="path-1-outside-1_224_2393" maskUnits="userSpaceOnUse" x="0" y="-2" width="924" height="394" fill="black">
<rect fill="white" y="-2" width="924" height="394"/>
<path fill-rule="evenodd" clip-rule="evenodd" d="M462 284.422C207.949 284.422 2 220.752 2 142.211C2 63.6699 207.949 0 462 0C716.051 0 922 63.6699 922 142.211C922 200.938 806.853 251.351 642.549 273.049L749.929 390L571.985 280.331C536.744 283.004 499.908 284.422 462 284.422Z"/>
</mask>
<path fill-rule="evenodd" clip-rule="evenodd" d="M462 284.422C207.949 284.422 2 220.752 2 142.211C2 63.6699 207.949 0 462 0C716.051 0 922 63.6699 922 142.211C922 200.938 806.853 251.351 642.549 273.049L749.929 390L571.985 280.331C536.744 283.004 499.908 284.422 462 284.422Z" fill="white"/>
<path d="M642.549 273.049L642.287 271.067C641.548 271.164 640.924 271.665 640.669 272.367C640.415 273.068 640.571 273.852 641.076 274.402L642.549 273.049ZM749.929 390L748.88 391.703C749.73 392.226 750.836 392.043 751.471 391.273C752.107 390.503 752.078 389.383 751.402 388.647L749.929 390ZM571.985 280.331L573.035 278.628C572.675 278.407 572.255 278.305 571.834 278.337L571.985 280.331ZM0 142.211C0 162.788 13.4845 182.015 36.9689 199.18C60.4956 216.377 94.4109 231.779 136.14 244.68C219.623 270.489 334.831 286.422 462 286.422V282.422C335.118 282.422 220.326 266.519 137.322 240.858C95.8073 228.024 62.3571 212.783 39.3293 195.951C16.2591 179.089 4 160.904 4 142.211H0ZM462 -2C334.831 -2 219.623 13.9328 136.14 39.7418C94.4109 52.6426 60.4956 68.0451 36.9689 85.2413C13.4845 102.407 0 121.633 0 142.211H4C4 123.518 16.2591 105.333 39.3293 88.4706C62.3571 71.6391 95.8073 56.3977 137.322 43.5634C220.326 17.9022 335.118 2 462 2V-2ZM924 142.211C924 121.633 910.516 102.407 887.031 85.2413C863.504 68.0451 829.589 52.6426 787.86 39.7418C704.377 13.9328 589.169 -2 462 -2V2C588.882 2 703.674 17.9022 786.678 43.5634C828.193 56.3977 861.643 71.6391 884.671 88.4706C907.741 105.333 920 123.518 920 142.211H924ZM642.811 275.032C725.074 264.169 795.151 246.104 844.723 223.334C869.505 211.951 889.263 199.346 902.853 185.795C916.45 172.237 924 157.595 924 142.211H920C920 156.19 913.157 169.873 900.029 182.962C886.895 196.059 867.597 208.425 843.054 219.699C793.977 242.241 724.329 260.232 642.287 271.067L642.811 275.032ZM641.076 274.402L748.456 391.353L751.402 388.647L644.022 271.697L641.076 274.402ZM750.979 388.297L573.035 278.628L570.936 282.034L748.88 391.703L750.979 388.297ZM462 286.422C499.957 286.422 536.844 285.002 572.137 282.325L571.834 278.337C536.644 281.006 499.858 282.422 462 282.422V286.422Z" fill="black" mask="url(#path-1-outside-1_224_2393)"/>
</svg>
