<svg width="20" height="15" viewBox="0 0 20 15" fill="none" xmlns="http://www.w3.org/2000/svg">
<path d="M8 10.4119L13.19 7.41187L8 4.41187V10.4119ZM19.56 2.58187C19.69 3.05187 19.78 3.68186 19.84 4.48186C19.91 5.28187 19.94 5.97187 19.94 6.57187L20 7.41187C20 9.60187 19.84 11.2119 19.56 12.2419C19.31 13.1419 18.73 13.7219 17.83 13.9719C17.36 14.1019 16.5 14.1919 15.18 14.2519C13.88 14.3219 12.69 14.3519 11.59 14.3519L10 14.4119C5.81 14.4119 3.2 14.2519 2.17 13.9719C1.27 13.7219 0.69 13.1419 0.44 12.2419C0.31 11.7719 0.22 11.1419 0.16 10.3419C0.0900001 9.54187 0.0599999 8.85187 0.0599999 8.25187L0 7.41187C0 5.22187 0.16 3.61187 0.44 2.58187C0.69 1.68187 1.27 1.10187 2.17 0.851865C2.64 0.721865 3.5 0.631865 4.82 0.571865C6.12 0.501865 7.31 0.471865 8.41 0.471865L10 0.411865C14.19 0.411865 16.8 0.571865 17.83 0.851865C18.73 1.10187 19.31 1.68187 19.56 2.58187Z" fill="black"/>
</svg>
