<svg width="20" height="15" viewBox="0 0 20 15" fill="none" xmlns="http://www.w3.org/2000/svg">
<path d="M8.00012 10.2451L13.1901 7.24512L8.00012 4.24512V10.2451ZM19.5601 2.41512C19.6901 2.88512 19.7801 3.51512 19.8401 4.31512C19.9101 5.11512 19.9401 5.80512 19.9401 6.40512L20.0001 7.24512C20.0001 9.43512 19.8401 11.0451 19.5601 12.0751C19.3101 12.9751 18.7301 13.5551 17.8301 13.8051C17.3601 13.9351 16.5001 14.0251 15.1801 14.0851C13.8801 14.1551 12.6901 14.1851 11.5901 14.1851L10.0001 14.2451C5.81012 14.2451 3.20012 14.0851 2.17012 13.8051C1.27012 13.5551 0.690122 12.9751 0.440122 12.0751C0.310122 11.6051 0.220122 10.9751 0.160122 10.1751C0.0901222 9.37512 0.060122 8.68512 0.060122 8.08512L0.00012207 7.24512C0.00012207 5.05512 0.160122 3.44512 0.440122 2.41512C0.690122 1.51512 1.27012 0.935117 2.17012 0.685117C2.64012 0.555117 3.50012 0.465117 4.82012 0.405117C6.12012 0.335117 7.31012 0.305117 8.41012 0.305117L10.0001 0.245117C14.1901 0.245117 16.8001 0.405117 17.8301 0.685117C18.7301 0.935117 19.3101 1.51512 19.5601 2.41512Z" fill="black"/>
</svg>
