<svg width="20" height="15" viewBox="0 0 20 15" fill="none" xmlns="http://www.w3.org/2000/svg">
<path d="M8.00002 10.5251L13.19 7.52515L8.00002 4.52515V10.5251ZM19.56 2.69515C19.69 3.16515 19.78 3.79515 19.84 4.59515C19.91 5.39515 19.94 6.08515 19.94 6.68515L20 7.52515C20 9.71515 19.84 11.3251 19.56 12.3551C19.31 13.2551 18.73 13.8351 17.83 14.0851C17.36 14.2151 16.5 14.3051 15.18 14.3651C13.88 14.4351 12.69 14.4651 11.59 14.4651L10 14.5251C5.81002 14.5251 3.20002 14.3651 2.17002 14.0851C1.27002 13.8351 0.690015 13.2551 0.440015 12.3551C0.310015 11.8851 0.220015 11.2551 0.160015 10.4551C0.0900153 9.65515 0.0600152 8.96515 0.0600152 8.36515L1.52588e-05 7.52515C1.52588e-05 5.33515 0.160015 3.72515 0.440015 2.69515C0.690015 1.79515 1.27002 1.21515 2.17002 0.965147C2.64002 0.835147 3.50002 0.745146 4.82002 0.685146C6.12002 0.615146 7.31002 0.585146 8.41002 0.585146L10 0.525146C14.19 0.525146 16.8 0.685147 17.83 0.965147C18.73 1.21515 19.31 1.79515 19.56 2.69515Z" fill="black"/>
</svg>
