<svg width="21" height="15" viewBox="0 0 21 15" fill="none" xmlns="http://www.w3.org/2000/svg">
<path d="M8.66992 10.9751L13.8599 7.9751L8.66992 4.9751V10.9751ZM20.2299 3.1451C20.3599 3.6151 20.4499 4.2451 20.5099 5.0451C20.5799 5.8451 20.6099 6.5351 20.6099 7.1351L20.6699 7.9751C20.6699 10.1651 20.5099 11.7751 20.2299 12.8051C19.9799 13.7051 19.3999 14.2851 18.4999 14.5351C18.0299 14.6651 17.1699 14.7551 15.8499 14.8151C14.5499 14.8851 13.3599 14.9151 12.2599 14.9151L10.6699 14.9751C6.47992 14.9751 3.86992 14.8151 2.83992 14.5351C1.93992 14.2851 1.35992 13.7051 1.10992 12.8051C0.979922 12.3351 0.889922 11.7051 0.829922 10.9051C0.759922 10.1051 0.729922 9.4151 0.729922 8.8151L0.669922 7.9751C0.669922 5.7851 0.829922 4.1751 1.10992 3.1451C1.35992 2.2451 1.93992 1.6651 2.83992 1.4151C3.30992 1.2851 4.16992 1.1951 5.48992 1.1351C6.78992 1.0651 7.97992 1.0351 9.07992 1.0351L10.6699 0.975098C14.8599 0.975098 17.4699 1.1351 18.4999 1.4151C19.3999 1.6651 19.9799 2.2451 20.2299 3.1451Z" fill="black"/>
</svg>
