<svg width="20" height="15" viewBox="0 0 20 15" fill="none" xmlns="http://www.w3.org/2000/svg">
<path d="M8 10.752L13.19 7.75195L8 4.75195V10.752ZM19.56 2.92195C19.69 3.39195 19.78 4.02195 19.84 4.82195C19.91 5.62195 19.94 6.31195 19.94 6.91195L20 7.75195C20 9.94195 19.84 11.552 19.56 12.582C19.31 13.482 18.73 14.062 17.83 14.312C17.36 14.442 16.5 14.532 15.18 14.592C13.88 14.662 12.69 14.692 11.59 14.692L10 14.752C5.81 14.752 3.2 14.592 2.17 14.312C1.27 14.062 0.69 13.482 0.44 12.582C0.31 12.112 0.22 11.482 0.16 10.682C0.0900001 9.88195 0.0599999 9.19195 0.0599999 8.59195L0 7.75195C0 5.56195 0.16 3.95195 0.44 2.92195C0.69 2.02195 1.27 1.44195 2.17 1.19195C2.64 1.06195 3.5 0.971953 4.82 0.911953C6.12 0.841953 7.31 0.811953 8.41 0.811953L10 0.751953C14.19 0.751953 16.8 0.911953 17.83 1.19195C18.73 1.44195 19.31 2.02195 19.56 2.92195Z" fill="black"/>
</svg>
