<svg width="20" height="15" viewBox="0 0 20 15" fill="none" xmlns="http://www.w3.org/2000/svg">
<path d="M8 10.5249L13.19 7.5249L8 4.5249V10.5249ZM19.56 2.6949C19.69 3.1649 19.78 3.7949 19.84 4.5949C19.91 5.3949 19.94 6.0849 19.94 6.6849L20 7.5249C20 9.7149 19.84 11.3249 19.56 12.3549C19.31 13.2549 18.73 13.8349 17.83 14.0849C17.36 14.2149 16.5 14.3049 15.18 14.3649C13.88 14.4349 12.69 14.4649 11.59 14.4649L10 14.5249C5.81 14.5249 3.2 14.3649 2.17 14.0849C1.27 13.8349 0.69 13.2549 0.44 12.3549C0.31 11.8849 0.22 11.2549 0.16 10.4549C0.0900001 9.6549 0.0599999 8.9649 0.0599999 8.3649L0 7.5249C0 5.3349 0.16 3.7249 0.44 2.6949C0.69 1.7949 1.27 1.2149 2.17 0.964902C2.64 0.834902 3.5 0.744902 4.82 0.684902C6.12 0.614902 7.31 0.584902 8.41 0.584902L10 0.524902C14.19 0.524902 16.8 0.684902 17.83 0.964902C18.73 1.2149 19.31 1.7949 19.56 2.6949Z" fill="black"/>
</svg>
