<svg width="406" height="243" viewBox="0 0 406 243" fill="none" xmlns="http://www.w3.org/2000/svg">
<path fill-rule="evenodd" clip-rule="evenodd" d="M11.4363 226.528C5.72875 225.935 1.42189 228.137 1.04082 232.816C0.553728 238.797 4.44886 241.417 11.4727 241.466C17.1803 242.059 22.0373 239.714 22.4183 235.036C22.7994 230.357 17.1439 227.12 11.4363 226.528ZM60.1186 210.58C61.4478 199.693 52.306 192.041 38.517 189.895C24.7281 187.75 9.80189 191.656 8.47271 202.544C7.14354 213.431 17.5194 221.743 31.3083 223.888C47.953 228.078 58.4196 224.497 60.1186 210.58ZM135.624 199.58C106.136 215.398 79.7781 198.239 79.7781 191.05C63.0842 194.094 49.4054 191.05 49.4054 177.457C27.2593 177.457 13.3075 169.715 16.5835 147.592C-3.5115 125.973 -0.224217 114.577 10.705 94.4977C2.14628 75.7502 9.00953 56.8002 37.6484 48.5934C37.6484 24.086 50.972 15.9024 79.7781 16.5156C106.827 -1.48355 120.877 -2.38364 158.406 10.985C183.467 -4.07764 201.68 -0.456604 226.742 10.985C259.532 -0.0501404 277.7 -3.68277 307.572 19.834C322.859 19.3549 360.246 23.3848 371.031 63.7792C399.64 66.8764 407.128 99.911 404.515 113.553C404.515 134.017 385.953 180.223 347.252 169.715C349.604 213.517 297.611 207.876 271.321 199.58C259.074 220.596 219.884 215.619 211.556 199.58C197.839 220.597 154.499 221.922 135.624 199.58Z" fill="white"/>
<path d="M1.04082 232.816L2.03752 232.898L1.04082 232.816ZM11.4363 226.528L11.5396 225.533L11.4363 226.528ZM11.4727 241.466L11.4797 240.466C11.5119 240.466 11.544 240.468 11.576 240.471L11.4727 241.466ZM22.4183 235.036L21.4216 234.954V234.954L22.4183 235.036ZM38.517 189.895L38.6708 188.907L38.517 189.895ZM60.1186 210.58L59.126 210.459L60.1186 210.58ZM8.47271 202.544L7.48008 202.422L8.47271 202.544ZM31.3083 223.888L31.4621 222.9C31.4925 222.905 31.5226 222.911 31.5524 222.918L31.3083 223.888ZM79.7781 191.05L79.5987 190.066C79.8905 190.013 80.1909 190.092 80.4186 190.282C80.6464 190.472 80.7781 190.753 80.7781 191.05H79.7781ZM135.624 199.58L135.151 198.699C135.568 198.476 136.083 198.574 136.388 198.935L135.624 199.58ZM49.4054 177.457V176.457C49.9577 176.457 50.4054 176.905 50.4054 177.457H49.4054ZM16.5835 147.592L17.316 146.911C17.5228 147.134 17.6172 147.438 17.5727 147.738L16.5835 147.592ZM10.705 94.4977L11.6147 94.0824C11.7454 94.3686 11.7337 94.6995 11.5833 94.9758L10.705 94.4977ZM37.6484 48.5934H38.6484C38.6484 49.0395 38.3528 49.4317 37.9239 49.5547L37.6484 48.5934ZM79.7781 16.5156L80.3321 17.3481C80.1619 17.4614 79.9612 17.5197 79.7568 17.5154L79.7781 16.5156ZM158.406 10.985L158.921 11.8421C158.664 11.9963 158.352 12.0275 158.07 11.927L158.406 10.985ZM226.742 10.985L227.061 11.9328C226.82 12.0138 226.558 12.0002 226.327 11.8947L226.742 10.985ZM307.572 19.834L307.603 20.8335C307.368 20.8409 307.138 20.7652 306.953 20.6198L307.572 19.834ZM371.031 63.7792L370.923 64.7734C370.512 64.729 370.171 64.4364 370.064 64.0372L371.031 63.7792ZM404.515 113.553H403.515C403.515 113.49 403.521 113.427 403.533 113.365L404.515 113.553ZM347.252 169.715L346.254 169.768C346.236 169.448 346.374 169.138 346.624 168.937C346.873 168.735 347.204 168.665 347.514 168.749L347.252 169.715ZM271.321 199.58L270.457 199.077C270.692 198.673 271.176 198.486 271.622 198.627L271.321 199.58ZM211.556 199.58L210.718 199.034C210.912 198.736 211.25 198.564 211.605 198.581C211.96 198.599 212.279 198.804 212.443 199.119L211.556 199.58ZM0.0441242 232.735C0.261854 230.062 1.62479 228.051 3.74102 226.829C5.81699 225.63 8.55065 225.223 11.5396 225.533L11.3331 227.522C8.61445 227.24 6.34088 227.637 4.74125 228.561C3.18189 229.462 2.20086 230.892 2.03752 232.898L0.0441242 232.735ZM11.4658 242.466C7.86656 242.441 4.86957 241.762 2.82192 240.152C0.706662 238.488 -0.2197 235.975 0.0441242 232.735L2.03752 232.898C1.81425 235.639 2.59191 237.426 4.05841 238.58C5.59252 239.787 8.05504 240.442 11.4797 240.466L11.4658 242.466ZM23.415 235.117C23.1937 237.834 21.6546 239.866 19.4284 241.102C17.2309 242.322 14.3721 242.772 11.3695 242.461L11.576 240.471C14.281 240.752 16.7045 240.327 18.4575 239.353C20.182 238.396 21.2619 236.916 21.4216 234.954L23.415 235.117ZM11.5396 225.533C14.5272 225.843 17.5403 226.846 19.7873 228.432C22.0339 230.018 23.6446 232.297 23.415 235.117L21.4216 234.954C21.5731 233.095 20.5466 231.416 18.6339 230.066C16.7214 228.716 14.053 227.805 11.3331 227.522L11.5396 225.533ZM38.6708 188.907C45.6951 190 51.6338 192.509 55.6649 196.224C59.7244 199.966 61.818 204.912 61.1112 210.701L59.126 210.459C59.7484 205.361 57.9356 201.037 54.3094 197.695C50.6546 194.326 45.128 191.936 38.3633 190.883L38.6708 188.907ZM7.48008 202.422C8.20725 196.466 12.6599 192.535 18.477 190.394C24.2937 188.252 31.6507 187.815 38.6708 188.907L38.3633 190.883C31.5944 189.83 24.5938 190.273 19.1679 192.27C13.7423 194.268 10.0673 197.734 9.46534 202.665L7.48008 202.422ZM31.1546 224.876C24.1178 223.781 17.883 221.105 13.5552 217.24C9.21033 213.36 6.7682 208.254 7.48008 202.422L9.46534 202.665C8.84804 207.721 10.9292 212.214 14.8873 215.748C18.8623 219.298 24.7099 221.849 31.4621 222.9L31.1546 224.876ZM61.1112 210.701C60.2296 217.923 57.0255 222.658 51.7131 224.943C46.5006 227.184 39.4595 226.971 31.0642 224.858L31.5524 222.918C39.8018 224.995 46.3163 225.086 50.923 223.105C55.4299 221.168 58.3085 217.155 59.126 210.459L61.1112 210.701ZM80.7781 191.05C80.7781 191.661 81.0689 192.516 81.7909 193.561C82.5015 194.589 83.5735 195.719 84.9863 196.863C87.8098 199.148 91.9108 201.416 96.9412 202.988C106.987 206.128 120.667 206.469 135.151 198.699L136.097 200.461C121.092 208.51 106.85 208.18 96.3446 204.897C91.0996 203.258 86.7682 200.878 83.7281 198.417C82.2091 197.188 80.9916 195.922 80.1455 194.698C79.311 193.49 78.7781 192.235 78.7781 191.05H80.7781ZM50.4054 177.457C50.4054 180.682 51.2139 183.208 52.6159 185.16C54.0207 187.117 56.0743 188.571 58.6849 189.557C63.9411 191.542 71.3212 191.575 79.5987 190.066L79.9575 192.033C71.5411 193.568 63.7348 193.602 57.9782 191.428C55.0823 190.334 52.6729 188.669 50.9913 186.327C49.3068 183.981 48.4054 181.029 48.4054 177.457H50.4054ZM17.5727 147.738C15.9696 158.564 18.5981 165.627 24.0878 170.041C29.6639 174.525 38.4023 176.457 49.4054 176.457V178.457C38.2624 178.457 28.9518 176.519 22.8345 171.6C16.6307 166.612 13.9215 158.742 15.5943 147.445L17.5727 147.738ZM11.5833 94.9758C6.11043 105.03 2.69786 112.674 3.00937 120.427C3.31903 128.134 7.32935 136.167 17.316 146.911L15.8511 148.273C5.74267 137.398 1.34912 128.923 1.01098 120.508C0.674685 112.138 4.37039 104.044 9.82672 94.0197L11.5833 94.9758ZM37.9239 49.5547C23.7674 53.6114 15.1721 60.2707 11.1144 68.055C7.06412 75.825 7.43035 84.9168 11.6147 94.0824L9.79535 94.913C5.42096 85.3312 4.93944 75.5742 9.34086 67.1306C13.7348 58.7013 22.8905 51.7822 37.3729 47.632L37.9239 49.5547ZM79.7568 17.5154C65.4012 17.2098 55.1526 19.1124 48.4985 23.9435C41.9225 28.7179 38.6484 36.5183 38.6484 48.5934H36.6484C36.6484 36.1611 40.0361 27.616 47.3235 22.3251C54.5327 17.0909 65.3489 15.2082 79.7994 15.5159L79.7568 17.5154ZM158.07 11.927C139.32 5.2478 126.594 2.19653 115.231 2.98499C103.904 3.77095 93.804 8.38341 80.3321 17.3481L79.2241 15.6831C92.8008 6.64867 103.25 1.81149 115.093 0.989777C126.899 0.170547 139.963 3.35355 158.741 10.043L158.07 11.927ZM226.327 11.8947C213.827 6.18803 203.152 2.48935 192.532 2.04503C181.946 1.60211 171.318 4.39098 158.921 11.8421L157.891 10.1279C170.555 2.51637 181.565 -0.415558 192.616 0.0467834C203.633 0.507721 214.595 4.34035 227.157 10.0753L226.327 11.8947ZM306.953 20.6198C292.119 8.94145 280.302 4.0889 268.198 3.45114C256.039 2.81046 243.47 6.41035 227.061 11.9328L226.423 10.0372C242.803 4.52449 255.713 0.790512 268.304 1.45392C280.95 2.12027 293.153 7.20979 308.19 19.0483L306.953 20.6198ZM370.064 64.0372C364.756 44.1535 352.93 33.2671 340.56 27.3821C328.15 21.4781 315.157 20.5968 307.603 20.8335L307.541 18.8345C315.274 18.5921 328.618 19.4862 341.419 25.576C354.26 31.6848 366.521 43.0106 371.997 63.5213L370.064 64.0372ZM403.533 113.365C404.793 106.783 403.621 95.3342 398.585 85.1553C393.568 75.0168 384.795 66.2752 370.923 64.7734L371.138 62.785C385.875 64.3804 395.15 73.7047 400.377 84.2684C405.584 94.7916 406.849 106.682 405.497 113.741L403.533 113.365ZM347.514 168.749C356.975 171.318 365.156 170.414 372.122 167.335C379.105 164.25 384.927 158.952 389.593 152.653C398.945 140.026 403.515 123.567 403.515 113.553H405.515C405.515 124.003 400.803 140.878 391.2 153.843C386.387 160.34 380.312 165.903 372.93 169.165C365.532 172.434 356.88 173.365 346.99 170.68L347.514 168.749ZM271.622 198.627C284.695 202.752 304.083 206.186 319.841 203.202C327.707 201.712 334.575 198.642 339.334 193.358C344.075 188.094 346.83 180.512 346.254 169.768L348.251 169.661C348.85 180.818 345.988 188.958 340.82 194.696C335.67 200.414 328.338 203.628 320.213 205.167C303.991 208.239 284.237 204.704 271.02 200.534L271.622 198.627ZM212.443 199.119C214.391 202.871 218.196 206.061 223.114 208.399C228.02 210.73 233.952 212.172 240.019 212.477C252.205 213.09 264.601 209.125 270.457 199.077L272.185 200.084C265.794 211.051 252.472 215.106 239.918 214.475C233.616 214.157 227.423 212.661 222.256 210.205C217.1 207.755 212.884 204.309 210.668 200.041L212.443 199.119ZM136.388 198.935C145.581 209.816 160.81 215.003 175.513 214.84C190.239 214.676 204.112 209.156 210.718 199.034L212.393 200.127C205.283 211.021 190.627 216.672 175.535 216.84C160.421 217.008 144.543 211.687 134.86 200.226L136.388 198.935Z" fill="black"/>
</svg>
