<svg width="22" height="18" viewBox="0 0 22 18" fill="none" xmlns="http://www.w3.org/2000/svg">
<path id="Twitter" d="M21.67 2.4751C20.9 2.8251 20.07 3.0551 19.21 3.1651C20.09 2.6351 20.77 1.7951 21.09 0.785098C20.26 1.2851 19.34 1.6351 18.37 1.8351C17.58 0.975098 16.47 0.475098 15.21 0.475098C12.86 0.475098 10.94 2.3951 10.94 4.7651C10.94 5.1051 10.98 5.4351 11.05 5.7451C7.49 5.5651 4.32 3.8551 2.21 1.2651C1.84 1.8951 1.63 2.6351 1.63 3.4151C1.63 4.9051 2.38 6.2251 3.54 6.9751C2.83 6.9751 2.17 6.7751 1.59 6.4751V6.5051C1.59 8.5851 3.07 10.3251 5.03 10.7151C4.40073 10.8873 3.7401 10.9113 3.1 10.7851C3.37161 11.6376 3.90354 12.3835 4.62102 12.918C5.3385 13.4525 6.20545 13.7488 7.1 13.7651C5.58363 14.9655 3.704 15.6144 1.77 15.6051C1.43 15.6051 1.09 15.5851 0.75 15.5451C2.65 16.7651 4.91 17.4751 7.33 17.4751C15.21 17.4751 19.54 10.9351 19.54 5.2651C19.54 5.0751 19.54 4.8951 19.53 4.7051C20.37 4.1051 21.09 3.3451 21.67 2.4751Z" fill="black"/>
</svg>
