<svg width="21" height="15" viewBox="0 0 21 15" fill="none" xmlns="http://www.w3.org/2000/svg">
<path id="Youtube" d="M8.67004 10.9751L13.86 7.9751L8.67004 4.9751V10.9751ZM20.23 3.1451C20.36 3.6151 20.45 4.2451 20.51 5.0451C20.58 5.8451 20.61 6.5351 20.61 7.1351L20.67 7.9751C20.67 10.1651 20.51 11.7751 20.23 12.8051C19.98 13.7051 19.4 14.2851 18.5 14.5351C18.03 14.6651 17.17 14.7551 15.85 14.8151C14.55 14.8851 13.36 14.9151 12.26 14.9151L10.67 14.9751C6.48004 14.9751 3.87004 14.8151 2.84004 14.5351C1.94004 14.2851 1.36004 13.7051 1.11004 12.8051C0.980044 12.3351 0.890044 11.7051 0.830044 10.9051C0.760044 10.1051 0.730044 9.4151 0.730044 8.8151L0.670044 7.9751C0.670044 5.7851 0.830044 4.1751 1.11004 3.1451C1.36004 2.2451 1.94004 1.6651 2.84004 1.4151C3.31004 1.2851 4.17004 1.1951 5.49004 1.1351C6.79004 1.0651 7.98004 1.0351 9.08004 1.0351L10.67 0.975098C14.86 0.975098 17.47 1.1351 18.5 1.4151C19.4 1.6651 19.98 2.2451 20.23 3.1451Z" fill="black"/>
</svg>
